<?xml version="1.0" encoding="UTF-8" ?>
<!DOCTYPE svg PUBLIC "-//W3C//DTD SVG 1.1//EN" "http://www.w3.org/Graphics/SVG/1.1/DTD/svg11.dtd">
<svg width="1000" height="1000" viewBox="0 0 500 500" version="1.1" xmlns="http://www.w3.org/2000/svg">
<g id="#">
<path fill="#fff"opacity="0" d=" M 0.00 0.00 L 500.00 0.00 L 500.00 500.00 L 0.00 500.00 L 0.00 0.00 M 186.34 131.46 C 177.74 133.34 169.09 137.54 164.05 145.04 C 155.06 156.75 152.58 172.65 155.18 186.93 C 157.63 203.17 168.14 217.47 181.75 226.31 C 182.52 239.66 175.48 251.96 173.98 265.00 C 184.93 262.78 195.83 260.04 206.98 259.03 C 225.40 257.47 243.96 259.74 261.82 264.30 C 266.70 265.46 271.07 268.69 276.13 269.04 C 264.03 261.25 249.76 256.46 235.67 253.40 C 219.39 249.48 202.43 250.74 186.02 253.01 C 186.89 249.45 187.29 245.79 188.21 242.24 C 215.01 236.20 244.24 237.35 269.01 249.99 C 272.99 251.46 275.91 255.18 280.09 256.05 C 278.83 253.24 275.51 252.48 273.22 250.76 C 260.40 242.86 246.21 237.04 231.35 234.47 C 217.40 231.72 203.15 233.41 189.10 234.00 C 188.12 218.82 187.07 202.78 181.07 188.78 C 181.55 198.27 183.89 207.62 182.92 217.18 C 163.06 201.50 157.82 168.63 175.35 149.38 C 192.06 136.33 216.03 142.18 231.08 155.03 C 230.21 151.46 227.16 148.86 224.82 146.18 C 214.11 137.48 200.77 129.12 186.34 131.46 M 295.34 144.55 C 275.64 146.24 258.33 156.44 241.00 165.01 C 233.35 168.53 225.55 172.33 217.00 172.93 C 206.63 172.03 197.62 165.69 190.76 158.25 C 190.34 158.16 189.51 157.98 189.09 157.90 C 192.52 169.63 201.72 180.70 214.28 182.63 C 228.28 184.30 241.28 178.02 253.95 172.96 C 269.42 165.43 285.39 157.49 303.00 157.01 C 315.80 156.21 331.07 160.42 336.62 173.30 C 341.50 186.59 342.26 202.92 333.89 214.91 C 326.54 226.65 312.95 232.57 299.95 235.85 C 303.08 224.83 298.41 209.44 284.97 209.03 C 265.87 207.97 247.10 215.80 228.00 213.03 C 216.41 212.66 205.52 208.34 195.91 202.02 C 195.99 202.46 196.14 203.33 196.21 203.76 C 204.71 210.41 214.22 216.12 224.99 218.03 C 245.61 223.78 267.04 215.66 287.75 219.28 C 293.28 223.31 293.16 230.90 293.92 236.99 C 294.50 249.76 292.62 262.46 291.10 275.12 C 293.16 273.94 293.98 272.02 293.54 269.35 C 294.89 261.25 297.71 253.41 298.21 245.18 C 308.18 243.67 318.42 241.52 327.04 236.06 C 339.60 228.85 349.46 216.23 351.66 201.72 C 354.16 188.80 352.25 174.72 345.80 163.20 C 335.48 146.49 313.67 141.52 295.34 144.55 M 187.26 295.18 C 183.93 297.11 183.34 303.38 187.65 304.41 C 191.11 306.69 194.10 303.13 194.99 300.00 C 193.79 296.99 191.50 292.91 187.26 295.18 M 341.29 296.39 C 338.94 297.11 335.72 295.88 334.28 298.25 C 332.27 307.85 330.26 317.46 328.00 327.01 C 328.00 331.14 324.61 336.11 320.01 335.01 C 319.29 326.09 323.50 317.79 324.02 309.04 C 321.14 308.88 318.17 309.01 315.32 309.17 C 314.95 313.00 312.31 307.61 310.01 308.96 C 300.51 307.30 294.88 317.43 293.51 325.35 C 294.00 331.43 287.93 334.60 282.93 335.90 C 278.85 336.16 275.79 331.34 277.45 327.64 C 279.21 322.42 279.42 313.40 285.95 312.01 C 290.59 312.36 284.66 318.56 288.99 318.97 C 295.05 317.31 291.98 305.62 285.00 309.00 C 280.92 307.89 277.78 310.68 274.85 312.85 C 270.08 318.93 266.81 326.86 268.28 334.70 C 270.25 340.23 277.07 342.29 282.33 340.41 C 286.40 339.53 289.32 336.26 292.74 334.12 C 294.35 343.11 307.44 342.74 310.72 335.02 C 311.59 337.07 312.18 339.73 314.64 340.41 C 318.74 342.59 322.59 338.89 326.02 337.03 C 325.71 338.34 325.26 339.62 324.98 340.95 C 328.06 340.43 332.84 342.88 334.75 339.72 C 335.54 334.88 336.49 330.06 337.21 325.22 C 339.09 323.38 342.92 321.65 344.87 324.22 C 344.82 329.16 342.04 335.77 346.24 339.75 C 351.20 341.75 357.18 340.84 360.24 336.24 C 368.03 345.67 383.98 339.50 387.07 328.96 C 383.04 329.44 381.33 334.60 377.11 335.21 C 374.58 336.81 369.71 335.33 369.98 332.03 C 366.45 325.49 371.84 327.82 374.32 326.34 C 378.60 324.60 383.23 322.04 384.20 317.10 C 386.63 313.02 381.76 306.74 377.00 309.00 C 366.05 308.23 361.18 320.91 359.93 329.98 C 361.73 336.27 348.65 336.90 353.61 329.35 C 355.29 323.84 353.30 316.15 345.83 317.79 C 348.62 313.69 354.37 313.06 357.13 309.03 C 349.04 306.81 345.65 316.41 339.01 318.06 C 340.83 310.74 342.14 303.29 344.00 295.98 C 343.33 296.08 341.97 296.29 341.29 296.39 M 87.18 306.11 C 83.63 322.68 79.35 339.23 77.00 356.04 C 79.89 355.66 83.53 355.80 85.72 353.74 C 87.29 348.97 87.86 343.94 89.08 339.09 C 93.89 342.42 100.91 340.87 104.78 336.78 C 110.09 330.04 111.39 320.85 109.39 312.64 C 107.22 306.79 99.38 308.58 94.98 310.94 C 95.38 309.31 95.97 307.73 96.06 306.05 C 93.10 305.88 90.12 305.99 87.18 306.11 M 213.30 306.41 C 210.54 307.64 206.07 305.42 204.96 308.98 C 202.74 314.93 200.77 321.02 197.63 326.57 C 194.69 327.77 194.05 330.94 193.71 333.76 C 191.67 335.05 187.52 336.28 187.37 332.71 C 188.28 324.84 191.24 317.01 192.03 309.05 C 189.10 308.88 186.12 308.99 183.21 309.09 C 181.42 316.65 180.26 324.37 177.77 331.75 C 176.27 333.72 173.25 336.76 171.12 333.80 C 170.46 326.78 174.85 320.33 173.71 313.31 C 172.67 309.48 167.82 307.93 164.31 309.27 C 162.55 310.14 161.09 311.56 159.20 312.16 C 159.08 311.19 161.16 308.54 159.02 309.00 C 156.22 309.49 151.83 307.17 150.27 310.29 C 148.31 318.16 148.27 326.84 143.83 333.81 C 142.41 336.12 137.12 335.35 138.03 332.00 C 139.68 324.36 141.79 316.77 143.04 309.05 C 140.17 309.68 134.20 306.71 133.75 310.89 C 131.06 307.93 126.77 309.13 123.29 309.29 C 115.70 313.27 111.22 322.56 111.99 331.00 C 110.38 337.05 116.78 343.07 122.70 340.73 C 125.59 339.56 127.37 336.83 129.75 334.94 C 129.55 338.10 132.29 340.17 135.05 340.97 C 138.87 341.72 141.87 338.66 145.02 337.03 C 144.71 338.34 144.26 339.62 143.98 340.94 C 146.94 341.15 149.86 340.92 152.83 340.89 C 154.98 333.97 155.73 326.65 157.65 319.68 C 158.70 317.08 162.30 312.90 164.88 316.22 C 164.96 323.21 161.28 329.71 162.17 336.73 C 166.07 342.79 174.77 341.43 178.64 336.09 C 181.15 343.45 190.35 340.71 194.96 336.94 C 197.80 340.17 202.28 342.34 206.67 340.60 C 211.79 339.65 215.27 335.41 219.73 333.09 C 220.53 334.98 221.34 336.87 222.33 338.67 C 225.64 341.14 229.97 341.27 233.71 339.69 C 235.44 338.52 236.43 335.96 238.77 336.00 C 238.40 340.82 244.59 341.95 248.09 340.17 C 253.15 338.81 255.84 333.73 257.07 329.00 C 253.64 328.23 253.72 333.18 251.86 334.95 C 250.14 335.10 247.05 335.42 247.03 332.97 C 247.69 324.82 249.93 316.88 251.83 308.95 C 249.45 309.00 244.69 309.11 242.32 309.16 C 242.05 312.85 239.95 308.38 238.01 308.96 C 230.80 307.64 224.57 313.07 222.58 319.65 C 220.24 323.72 221.82 330.74 216.07 332.01 C 216.01 323.31 214.36 314.73 214.94 306.01 C 214.53 306.11 213.71 306.31 213.30 306.41 Z" />
<path opacity="0" d=" M 129.28 312.28 C 130.82 311.34 131.81 313.44 132.83 314.23 C 132.13 319.42 130.44 324.49 129.62 329.68 C 128.53 332.12 126.41 335.81 123.24 334.81 C 118.27 331.27 121.99 323.74 123.34 319.28 C 124.55 316.42 126.07 313.28 129.28 312.28 Z" />
</g>
<g id="#eee">
<path fill="#ccc" opacity="1.00" d=" M 186.34 131.46 C 200.77 129.12 214.11 137.48 224.82 146.18 C 227.16 148.86 230.21 151.46 231.08 155.03 C 216.03 142.18 192.06 136.33 175.35 149.38 C 157.82 168.63 163.06 201.50 182.92 217.18 C 183.89 207.62 181.55 198.27 181.07 188.78 C 187.07 202.78 188.12 218.82 189.10 234.00 C 203.15 233.41 217.40 231.72 231.35 234.47 C 246.21 237.04 260.40 242.86 273.22 250.76 C 275.51 252.48 278.83 253.24 280.09 256.05 C 275.91 255.18 272.99 251.46 269.01 249.99 C 244.24 237.35 215.01 236.20 188.21 242.24 C 187.29 245.79 186.89 249.45 186.02 253.01 C 202.43 250.74 219.39 249.48 235.67 253.40 C 249.76 256.46 264.03 261.25 276.13 269.04 C 271.07 268.69 266.70 265.46 261.82 264.30 C 243.96 259.74 225.40 257.47 206.98 259.03 C 195.83 260.04 184.93 262.78 173.98 265.00 C 175.48 251.96 182.52 239.66 181.75 226.31 C 168.14 217.47 157.63 203.17 155.18 186.93 C 152.58 172.65 155.06 156.75 164.05 145.04 C 169.09 137.54 177.74 133.34 186.34 131.46 Z" />
<path fill="#2F2F2F" opacity="1.00" d=" M 295.34 144.55 C 313.67 141.52 335.48 146.49 345.80 163.20 C 352.25 174.72 354.16 188.80 351.66 201.72 C 349.46 216.23 339.60 228.85 327.04 236.06 C 318.42 241.52 308.18 243.67 298.21 245.18 C 297.71 253.41 294.89 261.25 293.54 269.35 C 293.98 272.02 293.16 273.94 291.10 275.12 C 292.62 262.46 294.50 249.76 293.92 236.99 C 293.16 230.90 293.28 223.31 287.75 219.28 C 267.04 215.66 245.61 223.78 224.99 218.03 C 214.22 216.12 204.71 210.41 196.21 203.76 C 196.14 203.33 195.99 202.46 195.91 202.02 C 205.52 208.34 216.41 212.66 228.00 213.03 C 247.10 215.80 265.87 207.97 284.97 209.03 C 298.41 209.44 303.08 224.83 299.95 235.85 C 312.95 232.57 326.54 226.65 333.89 214.91 C 342.26 202.92 341.50 186.59 336.62 173.30 C 331.07 160.42 315.80 156.21 303.00 157.01 C 285.39 157.49 269.42 165.43 253.95 172.96 C 241.28 178.02 228.28 184.30 214.28 182.63 C 201.72 180.70 192.52 169.63 189.09 157.90 C 189.51 157.98 190.34 158.16 190.76 158.25 C 197.62 165.69 206.63 172.03 217.00 172.93 C 225.55 172.33 233.35 168.53 241.00 165.01 C 258.33 156.44 275.64 146.24 295.34 144.55 Z" />
</g>
</svg>
